<mxfile host="Electron" agent="Mozilla/5.0 (Windows NT 10.0; Win64; x64) AppleWebKit/537.36 (KHTML, like Gecko) draw.io/28.0.6 Chrome/138.0.7204.100 Electron/37.2.3 Safari/537.36" version="28.0.6">
  <diagram name="第 1 页" id="4AwOGDmng9t6TeZg1gKG">
    <mxGraphModel dx="2051" dy="1629" grid="1" gridSize="10" guides="1" tooltips="1" connect="1" arrows="1" fold="1" page="1" pageScale="1" pageWidth="827" pageHeight="1169" math="0" shadow="0">
      <root>
        <mxCell id="0" />
        <mxCell id="1" parent="0" />
        <mxCell id="aXx6nWcxq6VXzFUx9lW_-63" value="" style="rounded=0;whiteSpace=wrap;html=1;fillColor=#d5e8d4;strokeColor=#82b366;" vertex="1" parent="1">
          <mxGeometry x="10" y="350" width="1210" height="340" as="geometry" />
        </mxCell>
        <mxCell id="aXx6nWcxq6VXzFUx9lW_-62" value="" style="rounded=0;whiteSpace=wrap;html=1;fillColor=#dae8fc;strokeColor=#6c8ebf;" vertex="1" parent="1">
          <mxGeometry x="10" y="10" width="1210" height="340" as="geometry" />
        </mxCell>
        <mxCell id="aXx6nWcxq6VXzFUx9lW_-16" style="edgeStyle=orthogonalEdgeStyle;rounded=0;orthogonalLoop=1;jettySize=auto;html=1;exitX=1;exitY=0.5;exitDx=0;exitDy=0;" edge="1" parent="1" source="aXx6nWcxq6VXzFUx9lW_-1" target="aXx6nWcxq6VXzFUx9lW_-4">
          <mxGeometry relative="1" as="geometry" />
        </mxCell>
        <mxCell id="aXx6nWcxq6VXzFUx9lW_-24" value="" style="edgeStyle=orthogonalEdgeStyle;rounded=0;orthogonalLoop=1;jettySize=auto;html=1;" edge="1" parent="1" source="aXx6nWcxq6VXzFUx9lW_-1" target="aXx6nWcxq6VXzFUx9lW_-23">
          <mxGeometry relative="1" as="geometry" />
        </mxCell>
        <mxCell id="aXx6nWcxq6VXzFUx9lW_-1" value="初始化" style="rounded=1;whiteSpace=wrap;html=1;" vertex="1" parent="1">
          <mxGeometry x="30" y="30" width="120" height="60" as="geometry" />
        </mxCell>
        <mxCell id="aXx6nWcxq6VXzFUx9lW_-17" style="edgeStyle=orthogonalEdgeStyle;rounded=0;orthogonalLoop=1;jettySize=auto;html=1;exitX=1;exitY=0.5;exitDx=0;exitDy=0;entryX=0;entryY=0.5;entryDx=0;entryDy=0;" edge="1" parent="1" source="aXx6nWcxq6VXzFUx9lW_-4" target="aXx6nWcxq6VXzFUx9lW_-6">
          <mxGeometry relative="1" as="geometry" />
        </mxCell>
        <mxCell id="aXx6nWcxq6VXzFUx9lW_-4" value="初始化camera" style="rounded=0;whiteSpace=wrap;html=1;" vertex="1" parent="1">
          <mxGeometry x="180" y="30" width="120" height="60" as="geometry" />
        </mxCell>
        <mxCell id="aXx6nWcxq6VXzFUx9lW_-18" style="edgeStyle=orthogonalEdgeStyle;rounded=0;orthogonalLoop=1;jettySize=auto;html=1;exitX=1;exitY=0.5;exitDx=0;exitDy=0;" edge="1" parent="1" source="aXx6nWcxq6VXzFUx9lW_-6" target="aXx6nWcxq6VXzFUx9lW_-8">
          <mxGeometry relative="1" as="geometry" />
        </mxCell>
        <mxCell id="aXx6nWcxq6VXzFUx9lW_-6" value="初始化场景" style="whiteSpace=wrap;html=1;rounded=0;" vertex="1" parent="1">
          <mxGeometry x="330" y="30" width="120" height="60" as="geometry" />
        </mxCell>
        <mxCell id="aXx6nWcxq6VXzFUx9lW_-19" style="edgeStyle=orthogonalEdgeStyle;rounded=0;orthogonalLoop=1;jettySize=auto;html=1;exitX=0.5;exitY=1;exitDx=0;exitDy=0;entryX=0.5;entryY=0;entryDx=0;entryDy=0;" edge="1" parent="1" source="aXx6nWcxq6VXzFUx9lW_-8" target="aXx6nWcxq6VXzFUx9lW_-10">
          <mxGeometry relative="1" as="geometry" />
        </mxCell>
        <mxCell id="aXx6nWcxq6VXzFUx9lW_-25" style="edgeStyle=orthogonalEdgeStyle;rounded=0;orthogonalLoop=1;jettySize=auto;html=1;exitX=1;exitY=0.5;exitDx=0;exitDy=0;entryX=0;entryY=0.5;entryDx=0;entryDy=0;" edge="1" parent="1" source="aXx6nWcxq6VXzFUx9lW_-8" target="aXx6nWcxq6VXzFUx9lW_-12">
          <mxGeometry relative="1" as="geometry" />
        </mxCell>
        <mxCell id="aXx6nWcxq6VXzFUx9lW_-8" value="创建窗口" style="whiteSpace=wrap;html=1;rounded=0;" vertex="1" parent="1">
          <mxGeometry x="480" y="30" width="120" height="60" as="geometry" />
        </mxCell>
        <mxCell id="aXx6nWcxq6VXzFUx9lW_-36" value="" style="edgeStyle=orthogonalEdgeStyle;rounded=0;orthogonalLoop=1;jettySize=auto;html=1;" edge="1" parent="1" source="aXx6nWcxq6VXzFUx9lW_-10" target="aXx6nWcxq6VXzFUx9lW_-35">
          <mxGeometry relative="1" as="geometry" />
        </mxCell>
        <mxCell id="aXx6nWcxq6VXzFUx9lW_-10" value="初始化glfw、glad、imgui" style="whiteSpace=wrap;html=1;rounded=0;spacingLeft=3;spacingRight=3;" vertex="1" parent="1">
          <mxGeometry x="480" y="110" width="120" height="60" as="geometry" />
        </mxCell>
        <mxCell id="aXx6nWcxq6VXzFUx9lW_-26" style="edgeStyle=orthogonalEdgeStyle;rounded=0;orthogonalLoop=1;jettySize=auto;html=1;exitX=1;exitY=0.5;exitDx=0;exitDy=0;entryX=0;entryY=0.5;entryDx=0;entryDy=0;" edge="1" parent="1" source="aXx6nWcxq6VXzFUx9lW_-12" target="aXx6nWcxq6VXzFUx9lW_-14">
          <mxGeometry relative="1" as="geometry" />
        </mxCell>
        <mxCell id="aXx6nWcxq6VXzFUx9lW_-28" value="" style="edgeStyle=orthogonalEdgeStyle;rounded=0;orthogonalLoop=1;jettySize=auto;html=1;" edge="1" parent="1" source="aXx6nWcxq6VXzFUx9lW_-12" target="aXx6nWcxq6VXzFUx9lW_-27">
          <mxGeometry relative="1" as="geometry" />
        </mxCell>
        <mxCell id="aXx6nWcxq6VXzFUx9lW_-12" value="创建所需要的OpenGL对象" style="whiteSpace=wrap;html=1;rounded=0;spacingLeft=3;spacingRight=3;" vertex="1" parent="1">
          <mxGeometry x="630" y="30" width="120" height="60" as="geometry" />
        </mxCell>
        <mxCell id="aXx6nWcxq6VXzFUx9lW_-14" value="初始化全局设置" style="whiteSpace=wrap;html=1;rounded=0;spacingLeft=3;spacingRight=3;" vertex="1" parent="1">
          <mxGeometry x="780" y="30" width="120" height="60" as="geometry" />
        </mxCell>
        <mxCell id="aXx6nWcxq6VXzFUx9lW_-39" style="edgeStyle=orthogonalEdgeStyle;rounded=0;orthogonalLoop=1;jettySize=auto;html=1;exitX=1;exitY=0.5;exitDx=0;exitDy=0;" edge="1" parent="1" source="aXx6nWcxq6VXzFUx9lW_-23" target="aXx6nWcxq6VXzFUx9lW_-37">
          <mxGeometry relative="1" as="geometry" />
        </mxCell>
        <mxCell id="aXx6nWcxq6VXzFUx9lW_-23" value="update" style="whiteSpace=wrap;html=1;rounded=1;" vertex="1" parent="1">
          <mxGeometry x="30" y="380" width="120" height="60" as="geometry" />
        </mxCell>
        <mxCell id="aXx6nWcxq6VXzFUx9lW_-30" value="" style="edgeStyle=orthogonalEdgeStyle;rounded=0;orthogonalLoop=1;jettySize=auto;html=1;" edge="1" parent="1" source="aXx6nWcxq6VXzFUx9lW_-27" target="aXx6nWcxq6VXzFUx9lW_-29">
          <mxGeometry relative="1" as="geometry" />
        </mxCell>
        <mxCell id="aXx6nWcxq6VXzFUx9lW_-27" value="相机全屏帧缓冲对象&lt;div&gt;（结果往上面绘制）&lt;/div&gt;" style="whiteSpace=wrap;html=1;rounded=0;spacingLeft=3;spacingRight=3;" vertex="1" parent="1">
          <mxGeometry x="630" y="110" width="120" height="60" as="geometry" />
        </mxCell>
        <mxCell id="aXx6nWcxq6VXzFUx9lW_-32" value="" style="edgeStyle=orthogonalEdgeStyle;rounded=0;orthogonalLoop=1;jettySize=auto;html=1;" edge="1" parent="1" source="aXx6nWcxq6VXzFUx9lW_-29" target="aXx6nWcxq6VXzFUx9lW_-31">
          <mxGeometry relative="1" as="geometry" />
        </mxCell>
        <mxCell id="aXx6nWcxq6VXzFUx9lW_-29" value="显示用帧缓冲对象（imgui）" style="whiteSpace=wrap;html=1;rounded=0;spacingLeft=3;spacingRight=3;" vertex="1" parent="1">
          <mxGeometry x="630" y="190" width="120" height="60" as="geometry" />
        </mxCell>
        <mxCell id="aXx6nWcxq6VXzFUx9lW_-31" value="sprite用quadVAO对象" style="whiteSpace=wrap;html=1;rounded=0;spacingLeft=3;spacingRight=3;" vertex="1" parent="1">
          <mxGeometry x="630" y="270" width="120" height="60" as="geometry" />
        </mxCell>
        <mxCell id="aXx6nWcxq6VXzFUx9lW_-35" value="绑定事件" style="whiteSpace=wrap;html=1;rounded=0;spacingLeft=3;spacingRight=3;" vertex="1" parent="1">
          <mxGeometry x="480" y="190" width="120" height="60" as="geometry" />
        </mxCell>
        <mxCell id="aXx6nWcxq6VXzFUx9lW_-41" value="" style="edgeStyle=orthogonalEdgeStyle;rounded=0;orthogonalLoop=1;jettySize=auto;html=1;" edge="1" parent="1" source="aXx6nWcxq6VXzFUx9lW_-37" target="aXx6nWcxq6VXzFUx9lW_-40">
          <mxGeometry relative="1" as="geometry" />
        </mxCell>
        <mxCell id="aXx6nWcxq6VXzFUx9lW_-37" value="清空默认帧缓冲区，处理事件" style="rounded=0;whiteSpace=wrap;html=1;" vertex="1" parent="1">
          <mxGeometry x="180" y="380" width="120" height="60" as="geometry" />
        </mxCell>
        <mxCell id="aXx6nWcxq6VXzFUx9lW_-43" value="" style="edgeStyle=orthogonalEdgeStyle;rounded=0;orthogonalLoop=1;jettySize=auto;html=1;" edge="1" parent="1" source="aXx6nWcxq6VXzFUx9lW_-40" target="aXx6nWcxq6VXzFUx9lW_-42">
          <mxGeometry relative="1" as="geometry" />
        </mxCell>
        <mxCell id="aXx6nWcxq6VXzFUx9lW_-40" value="计算帧率" style="whiteSpace=wrap;html=1;rounded=0;" vertex="1" parent="1">
          <mxGeometry x="330" y="380" width="120" height="60" as="geometry" />
        </mxCell>
        <mxCell id="aXx6nWcxq6VXzFUx9lW_-46" style="edgeStyle=orthogonalEdgeStyle;rounded=0;orthogonalLoop=1;jettySize=auto;html=1;exitX=1;exitY=0.5;exitDx=0;exitDy=0;entryX=0;entryY=0.5;entryDx=0;entryDy=0;" edge="1" parent="1" source="aXx6nWcxq6VXzFUx9lW_-42" target="aXx6nWcxq6VXzFUx9lW_-45">
          <mxGeometry relative="1" as="geometry" />
        </mxCell>
        <mxCell id="aXx6nWcxq6VXzFUx9lW_-42" value="绑定相机帧缓冲" style="whiteSpace=wrap;html=1;rounded=0;" vertex="1" parent="1">
          <mxGeometry x="480" y="380" width="120" height="60" as="geometry" />
        </mxCell>
        <mxCell id="aXx6nWcxq6VXzFUx9lW_-48" value="" style="edgeStyle=orthogonalEdgeStyle;rounded=0;orthogonalLoop=1;jettySize=auto;html=1;" edge="1" parent="1" source="aXx6nWcxq6VXzFUx9lW_-45" target="aXx6nWcxq6VXzFUx9lW_-47">
          <mxGeometry relative="1" as="geometry" />
        </mxCell>
        <mxCell id="aXx6nWcxq6VXzFUx9lW_-52" value="" style="edgeStyle=orthogonalEdgeStyle;rounded=0;orthogonalLoop=1;jettySize=auto;html=1;" edge="1" parent="1" source="aXx6nWcxq6VXzFUx9lW_-45" target="aXx6nWcxq6VXzFUx9lW_-51">
          <mxGeometry relative="1" as="geometry" />
        </mxCell>
        <mxCell id="aXx6nWcxq6VXzFUx9lW_-45" value="遍历场景" style="rounded=0;whiteSpace=wrap;html=1;" vertex="1" parent="1">
          <mxGeometry x="630" y="380" width="120" height="60" as="geometry" />
        </mxCell>
        <mxCell id="aXx6nWcxq6VXzFUx9lW_-50" value="" style="edgeStyle=orthogonalEdgeStyle;rounded=0;orthogonalLoop=1;jettySize=auto;html=1;" edge="1" parent="1" source="aXx6nWcxq6VXzFUx9lW_-47" target="aXx6nWcxq6VXzFUx9lW_-49">
          <mxGeometry relative="1" as="geometry" />
        </mxCell>
        <mxCell id="aXx6nWcxq6VXzFUx9lW_-47" value="遍历物体" style="whiteSpace=wrap;html=1;rounded=0;" vertex="1" parent="1">
          <mxGeometry x="630" y="460" width="120" height="60" as="geometry" />
        </mxCell>
        <mxCell id="aXx6nWcxq6VXzFUx9lW_-49" value="绘制" style="whiteSpace=wrap;html=1;rounded=0;" vertex="1" parent="1">
          <mxGeometry x="630" y="540" width="120" height="60" as="geometry" />
        </mxCell>
        <mxCell id="aXx6nWcxq6VXzFUx9lW_-54" value="" style="edgeStyle=orthogonalEdgeStyle;rounded=0;orthogonalLoop=1;jettySize=auto;html=1;" edge="1" parent="1" source="aXx6nWcxq6VXzFUx9lW_-51" target="aXx6nWcxq6VXzFUx9lW_-53">
          <mxGeometry relative="1" as="geometry" />
        </mxCell>
        <mxCell id="aXx6nWcxq6VXzFUx9lW_-51" value="将相机帧缓冲绘制到显示用帧缓冲" style="whiteSpace=wrap;html=1;rounded=0;" vertex="1" parent="1">
          <mxGeometry x="780" y="380" width="120" height="60" as="geometry" />
        </mxCell>
        <mxCell id="aXx6nWcxq6VXzFUx9lW_-56" value="" style="edgeStyle=orthogonalEdgeStyle;rounded=0;orthogonalLoop=1;jettySize=auto;html=1;" edge="1" parent="1" source="aXx6nWcxq6VXzFUx9lW_-53" target="aXx6nWcxq6VXzFUx9lW_-55">
          <mxGeometry relative="1" as="geometry" />
        </mxCell>
        <mxCell id="aXx6nWcxq6VXzFUx9lW_-60" value="" style="edgeStyle=orthogonalEdgeStyle;rounded=0;orthogonalLoop=1;jettySize=auto;html=1;" edge="1" parent="1" source="aXx6nWcxq6VXzFUx9lW_-53" target="aXx6nWcxq6VXzFUx9lW_-59">
          <mxGeometry relative="1" as="geometry" />
        </mxCell>
        <mxCell id="aXx6nWcxq6VXzFUx9lW_-53" value="回到默认帧缓冲，绘制imgui" style="whiteSpace=wrap;html=1;rounded=0;" vertex="1" parent="1">
          <mxGeometry x="930" y="380" width="120" height="60" as="geometry" />
        </mxCell>
        <mxCell id="aXx6nWcxq6VXzFUx9lW_-58" value="" style="edgeStyle=orthogonalEdgeStyle;rounded=0;orthogonalLoop=1;jettySize=auto;html=1;" edge="1" parent="1" source="aXx6nWcxq6VXzFUx9lW_-55" target="aXx6nWcxq6VXzFUx9lW_-57">
          <mxGeometry relative="1" as="geometry" />
        </mxCell>
        <mxCell id="aXx6nWcxq6VXzFUx9lW_-55" value="将显示用帧缓冲内容绑定到ImGui::Image" style="whiteSpace=wrap;html=1;rounded=0;" vertex="1" parent="1">
          <mxGeometry x="930" y="460" width="120" height="60" as="geometry" />
        </mxCell>
        <mxCell id="aXx6nWcxq6VXzFUx9lW_-57" value="imgui绘制，将组件绘制到默认帧缓冲" style="whiteSpace=wrap;html=1;rounded=0;" vertex="1" parent="1">
          <mxGeometry x="930" y="540" width="120" height="60" as="geometry" />
        </mxCell>
        <mxCell id="aXx6nWcxq6VXzFUx9lW_-64" style="edgeStyle=orthogonalEdgeStyle;rounded=0;orthogonalLoop=1;jettySize=auto;html=1;exitX=0.5;exitY=1;exitDx=0;exitDy=0;entryX=0.5;entryY=1;entryDx=0;entryDy=0;" edge="1" parent="1" source="aXx6nWcxq6VXzFUx9lW_-59" target="aXx6nWcxq6VXzFUx9lW_-23">
          <mxGeometry relative="1" as="geometry">
            <Array as="points">
              <mxPoint x="1150" y="650" />
              <mxPoint x="90" y="650" />
            </Array>
          </mxGeometry>
        </mxCell>
        <mxCell id="aXx6nWcxq6VXzFUx9lW_-59" value="交换缓冲区" style="whiteSpace=wrap;html=1;rounded=0;" vertex="1" parent="1">
          <mxGeometry x="1090" y="380" width="120" height="60" as="geometry" />
        </mxCell>
      </root>
    </mxGraphModel>
  </diagram>
</mxfile>
